<?xml version="1.0" standalone="no"?>
<!DOCTYPE svg PUBLIC "-//W3C//DTD SVG 20010904//EN"
 "http://www.w3.org/TR/2001/REC-SVG-20010904/DTD/svg10.dtd">
<svg version="1.0" xmlns="http://www.w3.org/2000/svg"
 width="278.000000pt" height="278.000000pt" viewBox="0 0 278.000000 278.000000"
 preserveAspectRatio="xMidYMid meet">
<metadata>
Created by potrace 1.11, written by Peter Selinger 2001-2013
</metadata>
<g transform="translate(0.000000,278.000000) scale(0.100000,-0.100000)"
fill="#000000" stroke="none">
<path d="M772 2684 c-48 -24 -47 -11 -47 -495 0 -254 3 -463 7 -465 4 -3 4
-12 1 -22 -3 -9 -3 -14 2 -10 4 4 13 0 20 -9 10 -13 34 -16 148 -17 91 0 134
-4 129 -11 -3 -6 0 -6 9 1 17 13 108 13 128 0 9 -6 12 -5 8 1 -8 12 393 11
412 -1 9 -6 12 -5 8 1 -7 12 91 12 109 1 6 -4 14 -4 18 0 4 4 42 8 84 9 42 2
91 8 108 13 34 12 94 61 94 78 0 5 5 12 11 14 5 2 14 21 19 43 10 42 14 796 4
831 -12 45 -44 50 -279 50 -121 -1 -224 -4 -230 -8 -6 -4 -10 -85 -10 -212 1
-113 -2 -206 -5 -206 -3 0 -27 13 -53 30 -26 16 -47 27 -47 24 0 -3 -7 2 -16
10 -17 18 -54 22 -54 5 0 -5 -4 -8 -9 -5 -5 4 -11 3 -13 -1 -6 -14 -87 -63
-91 -55 -2 4 -3 98 -3 210 1 111 -1 203 -4 203 -3 1 -102 2 -220 3 -146 1
-223 -2 -238 -10z m567 -751 c18 -19 25 -53 10 -53 -5 0 -8 -4 -4 -9 10 -18
-35 -22 -227 -23 -187 -1 -192 0 -210 22 -22 27 -22 31 -1 56 15 20 27 21 216
21 167 1 203 -2 216 -14z"/>
<path d="M57 1572 c-15 -9 -27 -22 -27 -29 0 -7 -4 -13 -8 -13 -10 0 -9 -919
1 -940 20 -42 27 -42 586 -42 386 0 549 3 581 12 53 14 125 81 135 125 4 17 9
37 12 45 4 8 5 20 4 25 -8 31 -7 94 1 89 6 -4 4 4 -2 17 -10 17 -10 24 -2 27
8 2 9 9 2 22 -7 13 -7 21 0 25 7 4 7 12 0 25 -13 25 -13 33 2 24 7 -5 8 -3 3
5 -11 19 -14 102 -3 95 6 -4 4 4 -2 17 -10 17 -10 24 -2 27 8 2 9 9 2 22 -7
13 -7 21 0 25 7 4 7 12 0 25 -13 25 -13 33 2 24 7 -5 8 -3 3 5 -11 19 -14 102
-3 95 6 -4 4 4 -2 17 -10 17 -10 24 -2 27 8 2 9 9 2 22 -7 13 -7 21 0 25 7 4
7 12 0 25 -13 25 -13 33 2 24 7 -5 8 -3 4 5 -5 7 -10 27 -13 44 -5 36 -39 69
-65 63 -10 -2 -20 -1 -22 3 -5 8 -131 5 -145 -3 -5 -4 -12 -3 -15 2 -5 9 -130
7 -145 -2 -5 -4 -12 -2 -16 4 -4 6 -12 7 -24 0 -12 -6 -22 -5 -29 2 -9 9 -12
9 -12 -1 0 -10 -3 -11 -13 -2 -17 14 -27 4 -27 -26 0 -16 -4 -22 -12 -17 -7 5
-8 3 -2 -7 9 -16 13 -354 4 -370 -4 -5 -26 4 -51 21 -24 16 -50 30 -56 30 -7
0 -13 4 -13 9 0 24 -40 14 -92 -22 -31 -21 -61 -36 -66 -33 -5 3 -8 18 -6 33
1 15 -3 31 -9 35 -9 6 -9 8 0 8 16 0 14 70 -1 70 -8 0 -8 3 0 8 12 9 13 151 0
171 -6 9 -5 12 1 8 6 -4 10 9 9 33 -1 36 -7 45 -28 41 -5 0 -8 4 -8 9 0 7 -6
7 -19 0 -11 -5 -22 -6 -25 -2 -5 9 -130 7 -145 -2 -5 -4 -12 -3 -15 2 -5 9
-134 7 -144 -2 -3 -3 -11 -1 -19 5 -10 9 -13 8 -13 -1 0 -9 -4 -9 -13 -2 -9 8
-20 6 -40 -6z m293 -747 c0 -5 5 -3 10 5 9 13 10 13 10 0 0 -9 3 -11 8 -5 4 6
25 10 47 10 22 0 43 -4 47 -10 5 -6 8 -4 8 5 0 13 1 13 10 0 5 -8 10 -10 10
-5 0 6 20 10 45 10 25 0 45 -4 45 -8 0 -5 5 -5 11 -2 14 9 48 -22 45 -41 -1
-8 -10 -24 -19 -34 -15 -18 -30 -19 -221 -17 -112 1 -208 5 -212 10 -13 12 -8
68 7 78 8 5 26 8 42 6 15 -2 27 -1 27 2 0 3 18 6 40 6 22 0 40 -4 40 -10z"/>
<path d="M1510 1577 c0 -4 -3 -6 -8 -3 -4 2 -18 -2 -32 -10 -14 -7 -20 -14
-15 -14 6 0 4 -4 -3 -8 -16 -11 -24 -112 -8 -112 7 0 8 -3 1 -8 -12 -8 -14
-66 -3 -78 4 -4 4 -12 1 -18 -10 -15 -10 -417 -1 -423 5 -2 5 -10 1 -16 -10
-17 -11 -97 -1 -103 5 -3 5 -11 1 -17 -9 -15 -11 -139 -2 -152 7 -10 9 -17 9
-34 0 -5 14 -14 30 -21 39 -16 1097 -18 1126 -2 11 6 22 9 25 9 12 -4 79 49
85 66 3 9 9 17 14 17 24 0 29 81 30 469 0 376 -1 410 -17 430 -10 12 -29 23
-42 26 -13 2 -26 7 -29 9 -2 3 -13 1 -23 -5 -14 -7 -19 -6 -19 2 0 8 -4 8 -15
-1 -12 -10 -15 -10 -15 0 0 10 -3 10 -15 0 -12 -10 -15 -10 -15 0 0 10 -3 10
-15 0 -12 -10 -15 -10 -15 0 0 10 -3 10 -15 0 -8 -7 -15 -8 -15 -3 0 10 -52 9
-69 -2 -6 -3 -11 -1 -11 6 0 8 -4 8 -16 -2 -13 -10 -17 -10 -24 0 -5 9 -10 10
-14 2 -5 -8 -13 -8 -28 0 -16 8 -19 8 -13 -1 6 -9 2 -9 -14 -1 -11 7 -21 8
-21 3 0 -12 -40 -10 -40 3 -1 12 -24 -25 -25 -40 -1 -5 2 -18 7 -27 5 -10 4
-19 -2 -23 -8 -5 -7 -11 1 -21 8 -10 8 -14 0 -14 -13 0 -10 -22 4 -32 6 -5 6
-8 -2 -8 -7 0 -10 -9 -7 -22 3 -13 6 -27 6 -33 0 -5 -3 -20 -6 -32 -2 -13 0
-23 5 -23 6 0 7 -4 4 -10 -12 -19 -14 -50 -3 -50 7 0 7 -4 1 -12 -11 -15 -11
-28 1 -47 7 -10 6 -12 -4 -6 -10 6 -12 4 -7 -8 9 -24 -4 -27 -38 -6 -16 10
-41 24 -55 31 -14 7 -31 18 -38 25 -12 11 -41 8 -52 -7 -3 -3 -26 -21 -51 -38
-44 -30 -47 -30 -52 -12 -3 11 -1 23 4 26 5 3 7 10 3 15 -3 5 -7 25 -9 44 -2
24 1 33 8 28 7 -4 7 0 -1 9 -9 11 -10 18 -2 23 6 3 8 11 4 16 -3 5 -7 25 -9
44 -2 24 1 33 8 28 7 -4 7 0 -1 9 -9 11 -10 18 -2 23 6 3 7 13 2 23 -4 9 -7
40 -6 69 1 45 -1 51 -17 48 -11 -2 -19 1 -19 7 0 7 -4 7 -13 -1 -8 -6 -17 -8
-20 -5 -10 10 -50 11 -69 2 -10 -5 -18 -5 -18 0 0 9 -53 8 -69 -3 -6 -3 -11
-1 -11 6 0 8 -5 7 -17 -2 -13 -11 -17 -11 -21 -1 -3 10 -7 10 -18 1 -11 -9
-14 -9 -14 1 0 10 -3 10 -15 0 -12 -10 -15 -10 -15 0 0 10 -3 10 -15 0 -12
-10 -15 -10 -15 0 0 10 -3 10 -15 0 -8 -7 -15 -8 -15 -3 0 5 -9 9 -20 9 -11 0
-20 -4 -20 -9z m211 -752 c5 -4 9 -2 9 3 0 10 54 7 71 -3 5 -4 9 -2 9 3 0 10
54 7 71 -3 5 -4 9 -2 9 4 0 6 11 6 30 1 17 -5 30 -5 30 -1 0 10 70 2 97 -11
16 -8 20 -17 17 -41 -2 -16 -6 -32 -10 -36 -3 -3 -100 -6 -216 -6 -192 0 -211
2 -223 18 -17 24 -1 79 21 70 8 -3 14 -1 14 5 0 9 54 7 71 -3z"/>
<path d="M106 472 c-3 -5 -16 -7 -29 -5 -14 3 -29 -3 -41 -16 -17 -18 -19 -37
-18 -153 1 -73 2 -140 3 -148 2 -16 18 -34 32 -38 4 -1 8 -3 10 -3 1 -1 60 -3
132 -4 130 -3 175 5 175 32 0 7 4 13 8 13 4 0 8 44 7 98 l0 97 408 0 c245 1
411 -3 414 -9 4 -5 1 -6 -7 -1 -9 6 -11 4 -5 -6 5 -7 10 -53 10 -102 3 -122 0
-120 176 -122 190 -1 189 -2 189 139 l0 102 410 0 410 0 1 -31 c1 -16 1 -60 1
-98 -1 -56 3 -71 21 -90 21 -21 30 -23 158 -22 192 0 184 -7 185 180 1 115 -2
149 -13 158 -7 7 -19 17 -26 22 -10 8 -141 12 -172 5 -5 -1 -14 -1 -20 0 -28
6 -218 4 -222 -3 -2 -4 -7 -5 -11 -3 -4 2 -24 7 -45 10 -29 5 -36 3 -31 -6 6
-10 4 -10 -8 0 -11 8 -18 9 -22 3 -6 -9 -35 -4 -57 10 -3 2 -12 -1 -20 -8 -10
-8 -20 -9 -29 -3 -21 14 -32 12 -24 -2 6 -10 4 -10 -8 0 -11 9 -18 10 -23 2
-3 -6 -10 -8 -14 -6 -16 10 -61 14 -66 6 -3 -5 -11 -7 -19 -4 -24 9 -97 11
-102 2 -3 -4 -10 -5 -16 -2 -14 9 -219 10 -225 1 -2 -4 -9 -4 -15 -1 -14 9
-219 10 -225 1 -2 -4 -7 -5 -11 -3 -4 2 -24 7 -45 10 -29 5 -36 3 -31 -6 6
-10 4 -10 -8 0 -11 8 -18 9 -22 3 -6 -9 -35 -4 -57 10 -3 2 -12 -1 -20 -8 -10
-8 -20 -9 -29 -3 -21 14 -32 12 -24 -2 6 -10 4 -10 -8 0 -11 9 -18 10 -23 2
-3 -6 -10 -8 -14 -6 -16 10 -61 14 -66 6 -3 -5 -11 -7 -19 -4 -24 9 -97 11
-102 2 -3 -4 -10 -5 -16 -2 -14 9 -219 10 -225 1 -2 -4 -9 -4 -15 -1 -14 9
-219 10 -225 1 -2 -4 -7 -5 -11 -3 -4 2 -24 7 -45 10 -29 5 -36 3 -31 -6 6
-10 4 -10 -8 0 -11 8 -18 9 -22 3 -4 -6 -16 -7 -29 -3 -26 9 -38 9 -52 0 -6
-4 -17 -3 -25 3 -21 13 -32 11 -24 -3 6 -10 4 -10 -8 0 -9 7 -19 9 -22 4z
m160 -135 c4 -4 3 -7 -3 -7 -6 0 -9 -21 -7 -50 l2 -50 -57 0 -58 0 2 58 c1 31
3 57 4 58 7 5 111 -3 117 -9z m1170 1 c6 -4 9 -24 8 -45 -1 -21 -2 -46 -3 -56
-1 -12 -5 -15 -13 -11 -7 4 -31 7 -55 5 l-43 -3 0 55 c0 29 2 56 5 59 7 7 88
4 101 -4z m1197 -15 c2 -13 -1 -23 -7 -23 -7 0 -7 -3 -1 -8 13 -9 16 -42 3
-42 -5 0 -6 -4 -3 -10 4 -6 -13 -10 -43 -10 -38 0 -52 4 -58 18 -10 23 -11 86
-2 92 4 3 30 6 57 6 44 0 50 -3 54 -23z"/>
</g>
</svg>
