<svg xmlns="http://www.w3.org/2000/svg" viewBox="0 0 1419 1096" width="1419" height="1096">
	<defs>
		<clipPath clipPathUnits="userSpaceOnUse" id="cp1">
			<path d="M-176 -246L3829 -246L3829 1343L-176 1343L-176 -246Z" />
		</clipPath>
	</defs>
	<style>
		tspan { white-space:pre }
		.shp0 { fill: #ededed } 
		.shp1 { fill: #04dec4 } 
		.shp2 { fill: #109eae } 
		.shp3 { fill: #39485a } 
		.shp4 { fill: #ffffff } 
	</style>
	<g id="Clip-Path: Page 1" clip-path="url(#cp1)">
		<g id="Page 1">
			<path id="Path 1" class="shp0" d="M1418.37 937.71C1418.37 1025 1101.04 1095.75 709.59 1095.75C318.14 1095.75 0.81 1025 0.81 937.71C0.81 850.42 318.14 779.66 709.59 779.66C1101.04 779.66 1418.37 850.42 1418.37 937.71Z" />
			<path id="Path 5" class="shp1" d="M623.91 1068.24L622.37 612.19L267.55 443.31L291.34 824.97L623.91 1068.24Z" />
			<path id="Path 6" class="shp2" d="M1175.46 497.58L622.37 612.19L623.91 1068.24L1144.14 891.62L1175.46 497.58Z" />
			<path id="Path 7" class="shp3" d="M267.55 443.31L1074.56 463.24L1175.46 497.58L622.37 612.19L267.55 443.31Z" />
			<path id="Path 8" class="shp4" d="M450 692.93L444.96 527.75L408.44 510.37L413.25 666.05L450 692.93Z" />
			<path id="Path 9" class="shp3" d="M237.75 41.48L257.65 39.11L585.76 0.02L1146.95 10.09L921.45 62.26L237.75 41.48Z" />
			<path id="Path 10" class="shp1" d="M261.52 500.69L237.75 41.48L921.45 62.27L904.38 590.76L261.52 500.69Z" />
			<path id="Path 11" class="shp2" d="M1146.95 10.09L1125.73 424.89L904.38 590.76L921.45 62.26L1146.95 10.09Z" />
			<path id="Path 12" class="shp4" d="M529.65 50.35L531.39 214.27L590.9 217.47L590.65 52.21L851.77 4.79L774.16 3.4L529.65 50.35Z" />
		</g>
	</g>
</svg>