<svg xmlns="http://www.w3.org/2000/svg" viewBox="0 0 3678 1109" width="3678" height="1109">
	<defs>
		<clipPath clipPathUnits="userSpaceOnUse" id="cp1">
			<path d="M-176 -231L3824 -231L3824 1354L-176 1354Z" />
		</clipPath>
	</defs>
	<style>
		tspan { white-space:pre }
		.shp0 { fill: #ededed } 
		.shp1 { fill: #39485a } 
		.shp2 { fill: #00dcb8 } 
		.shp3 { fill: #04dec4 } 
		.shp4 { fill: #109eae } 
		.shp5 { fill: #ffffff } 
	</style>
	<g id="Page 1" clip-path="url(#cp1)">
		<path id="Path 1" class="shp0" d="M1418.37 950.71C1418.37 1037.99 1101.04 1108.75 709.59 1108.75C318.14 1108.75 0.81 1037.99 0.81 950.71C0.81 863.42 318.14 792.66 709.59 792.66C1101.04 792.66 1418.37 863.42 1418.37 950.71Z" />
		<path id="Path 2" fill-rule="evenodd" class="shp1" d="M1391.98 0.83L1663.03 0.83C1742.21 0.83 1806.17 17.07 1851.85 49.55C1877.23 67.83 1897.54 90.16 1910.73 117.57C1923.93 144.98 1931.04 177.47 1931.04 211.98C1931.04 255.63 1918.85 296.24 1896.52 329.74C1886.37 345.98 1874.19 359.18 1860.99 371.36C1881.29 382.53 1898.55 396.74 1913.78 414C1948.29 452.58 1966.57 503.34 1966.57 561.2C1966.57 631.25 1941.19 689.11 1894.49 729.72C1846.78 771.34 1777.74 792.66 1690.44 792.66L1391.98 792.66L1391.98 0.83ZM1774.7 619.07C1792.97 604.85 1803.12 583.53 1803.12 554.09C1803.12 524.65 1792.97 502.32 1773.68 487.09C1751.35 469.84 1714.8 459.68 1669.12 459.68L1551.36 459.68L1551.36 641.4L1682.32 641.4C1721.91 641.4 1753.38 634.29 1774.7 619.07ZM1741.2 292.18C1760.49 278.98 1769.62 258.68 1769.62 229.24C1769.62 192.69 1752.37 179.5 1746.27 174.42C1728 159.19 1695.52 151.07 1653.89 151.07L1551.36 152.09L1551.36 311.47L1664.05 311.47C1696.53 311.47 1722.93 305.38 1741.2 292.18ZM2170.38 777.43C2135.86 762.21 2105.41 741.9 2078 715.51C2051.6 688.1 2031.3 657.64 2016.07 623.13C2001.86 587.6 1993.74 549.02 1993.74 510.44C1993.74 470.85 2001.86 433.29 2016.07 397.76C2031.3 363.24 2051.6 332.79 2078 305.38C2105.41 278.98 2135.86 258.68 2170.38 243.45C2205.91 228.22 2244.49 221.12 2283.06 221.12C2321.64 221.12 2360.22 228.22 2395.75 243.45C2430.26 258.68 2460.72 278.98 2488.13 305.38C2514.52 331.77 2534.83 363.24 2550.05 397.76C2565.28 433.29 2572.39 470.85 2572.39 510.44C2572.39 549.02 2565.28 587.6 2550.05 623.13C2534.83 657.64 2514.52 688.1 2488.13 715.51C2461.73 741.9 2430.26 762.21 2395.75 777.43C2360.22 791.64 2321.64 799.77 2283.06 799.77C2244.49 799.77 2205.91 791.64 2170.38 777.43ZM2146.01 510.44C2146.01 585.56 2207.94 647.49 2283.06 647.49C2358.19 647.49 2420.11 585.56 2420.11 510.44C2420.11 435.32 2358.19 373.39 2283.06 373.39C2207.94 373.39 2146.01 435.32 2146.01 510.44ZM2806.48 636.32L2688.72 792.66L2509.03 792.66L2714.1 507.4L2508.02 227.21L2694.81 227.21L2805.46 384.56L2918.15 227.21L3101.89 227.21L2897.85 508.41L3103.93 792.66L2923.22 792.66L2806.48 636.32Z" />
		<path id="Path 3" class="shp2" d="M3110.89 792.66L3264.18 792.66L3264.18 206.91L3110.89 257.66L3110.89 792.66ZM3677.5 369.33L3677.5 227.21L3516.09 227.21L3516.09 45.49L3363.81 96.25L3363.81 490.14C3363.81 532.77 3371.93 573.38 3388.17 611.96C3403.4 649.52 3426.75 683.02 3455.18 711.45C3483.6 740.89 3517.1 763.22 3554.66 779.46C3593.24 795.71 3634.86 803.83 3677.5 803.83L3677.5 651.55C3588.16 651.55 3516.08 579.47 3516.08 490.14L3516.08 369.33L3677.5 369.33Z" />
		<path id="Path 4" fill-rule="evenodd" class="shp1" d="M2511.7 1032.21C2504.38 1016.24 2501.05 998.94 2501.05 981.97C2501.05 965.99 2504.05 950.35 2510.7 934.71C2526.68 896.77 2567.28 860.5 2624.18 860.5C2681.75 860.5 2722.02 896.77 2738.33 934.71C2744.98 950.35 2747.98 965.99 2747.98 981.97C2747.98 998.94 2744.31 1016.24 2736.99 1032.21C2720.36 1069.15 2680.09 1103.76 2624.18 1103.76C2568.61 1103.76 2528.67 1068.82 2511.7 1032.21ZM2677.09 919.07C2663.45 907.09 2645.15 900.1 2624.18 900.1C2588.57 900.1 2561.62 922.4 2549.97 947.69C2544.98 958.67 2542.65 970.32 2542.65 981.97C2542.65 994.28 2544.98 1006.59 2550.3 1017.9C2550.3 1018.57 2550.64 1019.24 2550.97 1020.24C2551.3 1020.57 2551.3 1020.9 2551.97 1021.57C2553.63 1023.9 2554.96 1025.56 2556.96 1027.89L2567.28 1040.87C2568.28 1042.2 2573.6 1046.52 2575.26 1047.52C2588.91 1057.51 2605.55 1063.83 2624.18 1063.83C2660.46 1063.83 2687.08 1041.53 2699.06 1016.24C2704.05 1005.59 2706.38 993.61 2706.38 981.97C2706.38 970.32 2704.05 958.67 2699.06 948.02C2693.23 935.81 2685.66 926.59 2677.09 919.07ZM2773.59 863.5L2811.53 863.5L2912.36 1019.57L2912.36 863.5L2952.96 863.5L2952.96 1100.1L2915.03 1100.1L2814.86 942.7L2814.53 1071.48L2773.59 1108.75L2773.59 863.5ZM2994.44 863.5L3035.38 863.5L3035.38 1061.5L3161.83 1061.5L3161.83 1100.44L2994.44 1100.44L2994.44 863.5ZM3203.31 863.5L3244.25 863.5L3244.25 1100.44L3203.31 1100.44L3203.31 863.5ZM3285.72 863.5L3323.66 863.5L3424.49 1019.57L3424.49 863.5L3465.09 863.5L3465.09 1100.1L3427.16 1100.1L3326.99 942.7L3326.66 1071.48L3285.72 1108.75L3285.72 863.5ZM3506.57 863.5L3673.96 863.5L3673.96 903.43L3547.51 903.43L3547.51 930.38L3621.05 930.38L3621.05 969.99L3547.51 969.99L3547.51 1060.5L3673.96 1060.5L3673.96 1100.44L3506.57 1100.44L3506.57 863.5Z" />
		<path id="Path 5" class="shp3" d="M623.91 1081.24L622.37 625.19L267.55 456.31L291.34 837.97L623.91 1081.24Z" />
		<path id="Path 6" class="shp4" d="M1175.46 510.58L622.37 625.19L623.91 1081.24L1144.14 904.62L1175.46 510.58Z" />
		<path id="Path 7" class="shp1" d="M267.55 456.31L1074.56 476.24L1175.46 510.58L622.37 625.19L267.55 456.31Z" />
		<path id="Path 8" class="shp5" d="M449.99 705.93L444.96 540.75L408.44 523.37L413.25 679.05L449.99 705.93Z" />
		<path id="Path 9" class="shp1" d="M237.75 54.48L257.65 52.11L585.76 13.02L1146.95 23.09L921.45 75.26L237.75 54.48Z" />
		<path id="Path 10" class="shp3" d="M261.52 513.69L237.75 54.48L921.45 75.27L904.38 603.76L261.52 513.69Z" />
		<path id="Path 11" class="shp4" d="M1146.95 23.09L1125.73 437.89L904.38 603.76L921.45 75.26L1146.95 23.09Z" />
		<path id="Path 12" class="shp5" d="M529.65 63.35L531.39 227.27L590.9 230.47L590.65 65.21L851.77 17.79L774.16 16.4L529.65 63.35Z" />
	</g>
</svg>